# xmcd
#
# Track frame offsets:
#	150
#	15344
#	31874
#	46317
#	60096
#	74809
#	89563
#	112582
#	125384
#	142751
#	159790
#	179514
#	199382
#	213619
#	231238
#
# Disc length: 3242 seconds
#
# Revision: 1
# Processed by: cddbd v1.5.2PL0 Copyright (c) Steve Scherf et al.
# Submitted via: EZCDAudioConverter 2.1.7.1
#
DISCID=c40ca80f
DTITLE=V/A - Sub Pop 300!
DYEAR=1900
DGENRE=MOJO
TTITLE0=Green River - This Town
TTITLE1=Mudhoney - Sweet Young Thing Ain't Sweet No More
TTITLE2=Tad - Wood Goblins
TTITLE3=L7 - Shove
TTITLE4=Screaming Trees - Change Has Come
TTITLE5=Afghan Whigs - Retarded
TTITLE6=Red Red Meat - Braindead
TTITLE7=Eric Matthews - Fanfare
TTITLE8=Iron and Wine - Southern Anthem
TTITLE9=The Shins - New Slang
TTITLE10=Postal Service - Such Great Heights
TTITLE11=Kelley Stoltz - The Sun Comes Through
TTITLE12=Flight Of The Conchords - Bowie
TTITLE13=Pissed Jeans - Caught Licking Leather
TTITLE14=No Age - Eraser
EXTD=
EXTT0=
EXTT1=
EXTT2=
EXTT3=
EXTT4=
EXTT5=
EXTT6=
EXTT7=
EXTT8=
EXTT9=
EXTT10=
EXTT11=
EXTT12=
EXTT13=
EXTT14=
PLAYORDER=
